<?xml version="1.0" encoding="UTF-8" standalone="no"?>
<svg
   width="14"
   height="14"
   viewBox="0 0 14 14"
   version="1.1"
   id="svg8"
   sodipodi:docname="copy-14-submit-400.svg"
   inkscape:version="1.1.1 (1:1.1+202109281949+c3084ef5ed)"
   xmlns:inkscape="http://www.inkscape.org/namespaces/inkscape"
   xmlns:sodipodi="http://sodipodi.sourceforge.net/DTD/sodipodi-0.dtd"
   xmlns="http://www.w3.org/2000/svg"
   xmlns:svg="http://www.w3.org/2000/svg">
  <defs
     id="defs12" />
  <sodipodi:namedview
     id="namedview10"
     pagecolor="#ffffff"
     bordercolor="#666666"
     borderopacity="1.0"
     inkscape:pageshadow="2"
     inkscape:pageopacity="0.0"
     inkscape:pagecheckerboard="0"
     showgrid="false"
     inkscape:zoom="60.285714"
     inkscape:cx="6.9917062"
     inkscape:cy="7"
     inkscape:window-width="1920"
     inkscape:window-height="1043"
     inkscape:window-x="1920"
     inkscape:window-y="0"
     inkscape:window-maximized="1"
     inkscape:current-layer="svg8" />
  <path
     fill="none"
     d="M 0,0 H 14 V 14 H 0 Z"
     id="path2"
     style="fill-rule:nonzero" />
  <path
     fill="#1f5af6"
     d="M 13.025,0 H 4.876 A 0.976,0.976 0 0 0 3.902,0.975 v 8.149 c 0,0.537 0.437,0.974 0.974,0.974 h 8.15 A 0.976,0.976 0 0 0 14,9.124 V 0.974 A 0.976,0.976 0 0 0 13.025,0 Z M 12.729,8.827 H 5.173 V 1.271 h 7.556 z M 8.827,12.73 H 1.271 V 5.173 H 3.407 V 3.902 H 0.975 A 0.976,0.976 0 0 0 0,4.876 v 8.15 C 0,13.563 0.437,14 0.975,14 h 8.149 a 0.976,0.976 0 0 0 0.974,-0.975 v -2.432 h -1.27 v 2.136 z"
     id="path4"
     style="fill-rule:nonzero;fill:#aa0000" />
</svg>
