<?xml version="1.0" encoding="UTF-8" standalone="no"?>
<svg
   width="48"
   height="48"
   viewBox="0 0 48 48"
   version="1.1"
   id="svg10"
   sodipodi:docname="lock-48-multy.svg"
   inkscape:version="1.1.1 (1:1.1+202109281949+c3084ef5ed)"
   xmlns:inkscape="http://www.inkscape.org/namespaces/inkscape"
   xmlns:sodipodi="http://sodipodi.sourceforge.net/DTD/sodipodi-0.dtd"
   xmlns="http://www.w3.org/2000/svg"
   xmlns:svg="http://www.w3.org/2000/svg">
  <defs
     id="defs14" />
  <sodipodi:namedview
     id="namedview12"
     pagecolor="#ffffff"
     bordercolor="#666666"
     borderopacity="1.0"
     inkscape:pageshadow="2"
     inkscape:pageopacity="0.0"
     inkscape:pagecheckerboard="0"
     showgrid="false"
     inkscape:zoom="17.583333"
     inkscape:cx="23.971564"
     inkscape:cy="24"
     inkscape:window-width="1920"
     inkscape:window-height="1043"
     inkscape:window-x="1920"
     inkscape:window-y="0"
     inkscape:window-maximized="1"
     inkscape:current-layer="svg10" />
  <path
     fill="none"
     d="M 0,0 H 48 V 48 H 0 Z"
     id="path2"
     style="fill-rule:nonzero" />
  <path
     fill="#1f5af6"
     d="m 24.031,14.277 c -5.506,5.505 -16.096,8.025 -16.096,8.025 0.335,3.965 0.928,7.9 1.709,11.815 0.46,2.306 1.304,4.466 2.874,6.343 2.82,3.378 6.588,5.509 10.876,6.925 0.417,0.137 0.985,0.092 1.415,-0.046 2.57,-0.823 4.965,-1.973 7.132,-3.5 2.33,-1.638 4.212,-3.61 5.313,-6.155 1.449,-3.356 1.906,-6.898 2.307,-10.448 0.186,-1.648 0.35,-3.299 0.504,-4.95 -0.868,-0.214 -10.772,-2.748 -16.034,-8.009 z m 2.795,22.826 a 0.701,0.701 0 0 1 -0.677,0.889 H 21.856 A 0.706,0.706 0 0 1 21.32,37.744 0.695,0.695 0 0 1 21.163,37.177 l 0.743,-6.226 a 3.88,3.88 0 0 1 -1.819,-3.278 c 0,-2.145 1.756,-3.888 3.914,-3.888 2.158,0 3.914,1.743 3.914,3.888 a 3.88,3.88 0 0 1 -1.818,3.278 l 0.73,6.152 z"
     id="path4"
     style="fill-rule:nonzero;fill:#aa0000" />
  <path
     fill="#bacaf4"
     d="m 17.94,15.46 v -4.247 c 0,-3.32 2.719,-6.02 6.06,-6.02 3.342,0 6.06,2.7 6.06,6.02 v 4.209 c 1.548,0.898 3.18,1.653 4.692,2.264 v -6.473 c 0,-5.89 -4.824,-10.68 -10.752,-10.68 -5.928,0 -10.752,4.79 -10.752,10.68 v 6.5 c 1.51,-0.608 3.142,-1.359 4.692,-2.253 z"
     id="path6"
     style="fill-rule:nonzero;fill:#ff8080" />
</svg>
