<?xml version="1.0" encoding="UTF-8" standalone="no"?>
<svg
   width="102"
   height="31.369434"
   viewBox="0 0 102 31.369434"
   version="1.1"
   id="svg16"
   sodipodi:docname="tackeeper-16.svg"
   inkscape:version="1.1.1 (1:1.1+202109281949+c3084ef5ed)"
   xmlns:inkscape="http://www.inkscape.org/namespaces/inkscape"
   xmlns:sodipodi="http://sodipodi.sourceforge.net/DTD/sodipodi-0.dtd"
   xmlns="http://www.w3.org/2000/svg"
   xmlns:svg="http://www.w3.org/2000/svg">
  <defs
     id="defs20" />
  <sodipodi:namedview
     id="namedview18"
     pagecolor="#ffffff"
     bordercolor="#666666"
     borderopacity="1.0"
     inkscape:pageshadow="2"
     inkscape:pageopacity="0.0"
     inkscape:pagecheckerboard="0"
     showgrid="false"
     fit-margin-top="0"
     fit-margin-left="0"
     fit-margin-right="0"
     fit-margin-bottom="0.3"
     inkscape:zoom="9.2755771"
     inkscape:cx="51.048036"
     inkscape:cy="8.0318452"
     inkscape:window-width="1848"
     inkscape:window-height="1016"
     inkscape:window-x="72"
     inkscape:window-y="27"
     inkscape:window-maximized="1"
     inkscape:current-layer="svg16" />
  <path
     fill="none"
     d="M 0,0 H 102 V 16 H 0 Z"
     id="path2"
     style="fill-rule:evenodd" />
  <path
     fill="none"
     d="M 0,0 H 56.829 V 13.091 H 0 Z"
     id="path6"
     style="fill-rule:evenodd" />
  <text
     xml:space="preserve"
     style="font-size:18.6667px;line-height:1.25;font-family:'DejaVu Sans';-inkscape-font-specification:'DejaVu Sans'"
     x="8.8121262"
     y="13.441033"
     id="text15267"><tspan
       sodipodi:role="line"
       id="tspan15265"
       x="8.8121262"
       y="13.441033"
       style="font-size:18.6667px">norsu</tspan></text>
  <g
     id="g3916"
     transform="matrix(0.26818463,0,0,0.26818463,55.845016,-13.847763)">
    <path
       id="rect1102-3"
       style="fill:#d35f5f;stroke-width:0.15503"
       d="m 86.959792,108.04352 h 13.190958 l -1.961652,59.44258 h -9.26765 z"
       sodipodi:nodetypes="ccccc" />
    <path
       id="rect1404-6"
       style="fill:#d35f5f;stroke-width:0.333502"
       d="m 117.18451,54.486103 h 11.90372 c 2.84382,0 5.34527,3.588544 11.7989,16.674126 1.82466,3.699728 10.77424,22.544848 8.71829,32.563841 -2.05596,10.01899 -15.19354,18.91096 -21.15259,23.18439 -5.95905,4.27344 -7.60176,7.42066 -13.47599,3.58332 -5.87422,-3.83733 -7.89294,-5.18061 -8.05886,-14.82347 l -0.8558,-49.738118 c -0.16592,-9.64287 5.43467,-11.444089 11.12233,-11.444089 z"
       sodipodi:nodetypes="szszzzsss" />
    <g
       id="g1175"
       transform="matrix(1.2360939,0,0,1.508299,-16.639364,-71.241056)">
      <rect
         style="fill:#d35f5f;fill-opacity:1;stroke:none;stroke-width:0.191956"
         id="rect7204-7"
         width="6.4865093"
         height="16.849596"
         x="92.071449"
         y="138.29659" />
      <rect
         style="fill:#d35f5f;fill-opacity:1;stroke:none;stroke-width:0.104566"
         id="rect7286-5"
         width="6.4865093"
         height="5"
         x="98.286865"
         y="136.70911" />
      <rect
         style="fill:#d35f5f;fill-opacity:1;stroke:none;stroke-width:0.104566"
         id="rect7288-3"
         width="6.4865093"
         height="5"
         x="98.286865"
         y="151.73366" />
      <rect
         style="fill:#d35f5f;fill-opacity:1;stroke:none;stroke-width:0.104566"
         id="rect7290-5"
         width="6.4865093"
         height="5"
         x="98.286865"
         y="144.22139" />
    </g>
    <path
       id="path832"
       style="fill:#d35f5f;stroke-width:0.333501"
       d="M 69.635855,54.486103 H 57.7322 c -2.843808,0 -5.345244,3.588519 -11.798838,16.674013 -1.824641,3.699704 -10.774176,22.544687 -8.718233,32.563614 2.055943,10.01891 15.193448,18.91085 21.152467,23.18424 5.95902,4.27342 7.601721,7.4206 13.475914,3.58331 5.874192,-3.83731 7.892895,-5.1806 8.058814,-14.8234 L 80.758121,65.930115 C 80.924039,56.287309 75.323481,54.486103 69.635855,54.486103 Z"
       sodipodi:nodetypes="szszzzsss" />
    <g
       id="g1601">
      <path
         id="rect846-6"
         style="fill:#d35f5f;stroke-width:0.25474"
         d="m 88.966747,57.458233 h 9.323208 c 5.118885,0 9.239875,5.286388 9.239875,11.852886 v 14.896284 14.896286 c 0,6.566491 -4.12099,11.852881 -9.239875,11.852881 h -9.323208 c -5.118888,0 -9.239871,-5.28639 -9.239871,-11.852881 v -29.79257 c 0,-6.566498 4.120983,-11.852886 9.239871,-11.852886 z"
         sodipodi:nodetypes="ssscssssss" />
      <ellipse
         style="fill:#ffffff;stroke:none;stroke-width:0.394073"
         id="path936-2"
         cx="83.83696"
         cy="86.095848"
         rx="3.0752423"
         ry="3.6000988" />
      <ellipse
         style="fill:#ffffff;stroke:none;stroke-width:0.394073"
         id="ellipse1388"
         cx="102.98334"
         cy="86.095848"
         rx="3.0752423"
         ry="3.6000988" />
    </g>
  </g>
</svg>
